<svg id="Livello_1" data-name="Livello 1" xmlns="http://www.w3.org/2000/svg" viewBox="0 0 300 300"><defs><clipPath id="clip-path"><path class="cls-1" d="M0 0h300v300H0z"/></clipPath><style>.cls-1{fill:none}.cls-6{fill:#374146}.cls-9{fill:#23a6a6}</style></defs><g clip-path="url(#clip-path)"><circle class="cls-1" cx="150" cy="140.645" r="146.72"/><path fill="#f1c40f" d="M-7.794-5.211H305.58v314.717H-7.794z"/><path d="M84.217 178.194l-89 36.894v93.278l118.049-.408c4.284 0 190.165.73 190.165.73l1-84.594c1.4 0-40.27-31.692-40.27-31.692l-59.03-20.637-44.27 28.4-74.749-3.2z" fill="#fe866f"/><path stroke="#fff" stroke-miterlimit="10" stroke-width="2.96" fill="none" d="M138.629 198.455l1.042 108.33"/><path class="cls-6" d="M.043 213.934s7.7-16.827 33.165-26.447 25-4.326 39.9-17.784 32.2-4.326 32.2-4.326l73.07-3.837s-.489-8.653 26.914 2.88 29.317 3.359 43.742 10.1 11.055 12.49 29.317 19.707 23.08 27.873 23.08 27.873-39.894-16.338-64.9-24.034-33.165-5.762-49.96 4.326-55.275 7.218-77.385-.957-27.4 12.979-56.243 14.882S-.882 217.75-.882 217.75z"/><path d="M100.67 74.545s-27.58 11.76-11.75 42.51c0 0-13.57 12.21 1.8 13.57 0 0-7.23 19.89 17.64 24.87l-7.69 28s46.58 21.26 77.78-2.71l-18.09-48.84s-31.2-56.94-34.36-58.3-5.43-5.43-25.33.9z" fill="#f45914"/><path d="M104.29 113.885s-14.92 19.45 3.62 29" stroke-linecap="round" stroke="#fff" stroke-miterlimit="10" stroke-width="2.96" fill="none"/><path class="cls-6" d="M100.67 74.545s20.68 62.55 68.16 79.74l54.84-123.64z"/><path class="cls-9" d="M157.11 101.305l-10.98-7.32-12.25 4.89 3.57-12.7-8.43-10.13 13.17-.53 7.04-11.16 4.57 12.37 12.79 3.24-10.35 8.18.87 13.16zM195.15 70.395l-7.11-1.52-5.28 5-.76-7.23-6.38-3.47 6.64-2.96 1.33-7.14 4.86 5.4 7.21-.94-3.64 6.29 3.13 6.57zM149.35 131.925l1.84-7.04-4.74-5.5 7.25-.42 3.77-6.22 2.64 6.77 7.08 1.67-5.62 4.6.6 7.25-6.12-3.93-6.7 2.82z"/></g></svg>